<svg xmlns="http://www.w3.org/2000/svg" width="48" height="48" viewBox="0 0 48 48">
  <g id="ico-trip-saudi-c" transform="translate(-710 -287)">
    <circle id="Ellipse_339" data-name="Ellipse 339" cx="24" cy="24" r="24" transform="translate(710 287)" fill="#e8edff"/>
    <g id="Group_1218" data-name="Group 1218" transform="translate(720.73 294.966)">
      <g id="Group_1216" data-name="Group 1216" transform="translate(4.695 4.034)">
        <path id="Path_11570" data-name="Path 11570" d="M23.751,20.43A2.724,2.724,0,0,0,21.772,18.1l-.725-.2a11.864,11.864,0,0,0-.582-2.859,14.4,14.4,0,0,1-.755-4.643,13.955,13.955,0,0,0-.291-3.068A.882.882,0,0,0,18.96,5.8l-.079-.01c-2.018-2.514-6.393-2.162-8.4,0a.884.884,0,0,0-.86.881.864.864,0,0,0,.295.652A13.911,13.911,0,0,0,9.624,10.4c.1,3.117-1.133,4.785-1.337,7.5.006.008-.725.2-.725.2A2.7,2.7,0,0,0,6.1,19.123a2.728,2.728,0,0,1,1.474-.414h4.017a2.313,2.313,0,0,1,.336-.41,15.406,15.406,0,0,1-1.689-.928l-1.271.344a6.263,6.263,0,0,1,.208-1.238,21.444,21.444,0,0,0,1.886-3.091,8.171,8.171,0,0,0,.973,1.31V16.23c-.046-.033-.093-.066-.136-.1a.33.33,0,0,0-.5.113l-.417.831a12.914,12.914,0,0,0,1.519.8,2.294,2.294,0,0,1,2.646.424c.021.021.039.043.058.064a8.709,8.709,0,0,0,3.149-1.294l-.41-.821a.321.321,0,0,0-.222-.175c-.169-.047-.288.072-.414.162V14.7a8.171,8.171,0,0,0,.973-1.31,21.444,21.444,0,0,0,1.886,3.091,6.267,6.267,0,0,1,.208,1.238l-1.287-.351a9.938,9.938,0,0,1-3.478,1.592,2.263,2.263,0,0,1,.2.955,2.213,2.213,0,0,1-.668,1.618c-.048.048-.1.089-.151.132,0,.476,0,.84,0,.891H23.6a.332.332,0,0,0,.328-.364ZM17.831,5.677a34.9,34.9,0,0,0-6.161-.013A5.356,5.356,0,0,1,17.831,5.677Zm-1.188,10.9a4.994,4.994,0,0,1-.976.281,5.122,5.122,0,0,1-2.975-.281V15.323a3.21,3.21,0,0,0,1.959.781,3.2,3.2,0,0,0,1.992-.781Zm.119-2.263a2.511,2.511,0,0,1-4.146.043,8.49,8.49,0,0,1-1.261-1.777,1.591,1.591,0,0,0,.05-.371V9.46a.847.847,0,0,1,.48-.771,2.488,2.488,0,0,1,1.6-.069,5.431,5.431,0,0,0,2.376,0c.926-.191,1.99-.171,2.075.841.017.234-.046,2.979.05,3.117A8.351,8.351,0,0,1,16.762,14.311Zm1.89-1.77c-.1-.058-.049-2.909-.06-3.081-.059-1.469-1.555-1.81-2.882-1.486a4.816,4.816,0,0,1-2.085,0,3.118,3.118,0,0,0-2.019.113,1.516,1.516,0,0,0-.864,1.373v2.747a6.388,6.388,0,0,1-1.009,2.23,13.729,13.729,0,0,0,.553-4.05A14.25,14.25,0,0,1,10.6,7.537a37.352,37.352,0,0,1,8.187,0,13.476,13.476,0,0,1,.265,2.846,13.729,13.729,0,0,0,.553,4.05A9.47,9.47,0,0,1,18.652,12.54Z" transform="translate(-6.095 -4.034)" fill="#0a2ec6"/>
      </g>
      <path id="Path_11571" data-name="Path 11571" d="M4,50.358a2.172,2.172,0,0,1,2.166-2.166H10.6a1.669,1.669,0,0,1,.589-.778,1.544,1.544,0,0,1,.941-.3,1.624,1.624,0,1,1,0,3.249,1.546,1.546,0,0,1-.941-.3,1.672,1.672,0,0,1-.589-.779H6.169a1.083,1.083,0,0,0,0,2.166h5.415a2.166,2.166,0,0,1,0,4.332H7.157a1.673,1.673,0,0,1-.589.778,1.544,1.544,0,0,1-.941.3,1.624,1.624,0,1,1,.947-2.945,1.575,1.575,0,0,1,.582.778h4.427a1.083,1.083,0,0,0,0-2.166H6.169A2.172,2.172,0,0,1,4,50.358Z" transform="translate(0 -28.821)" fill="#0a2ec6"/>
    </g>
  </g>
</svg>
