<svg xmlns="http://www.w3.org/2000/svg" width="48" height="48" viewBox="0 0 48 48">
  <g id="ico-opm-b" transform="translate(-710 -287)">
    <circle id="Ellipse_339" data-name="Ellipse 339" cx="24" cy="24" r="24" transform="translate(710 287)" fill="#f6f5e9"/>
    <g id="Group_1211" data-name="Group 1211" transform="translate(745.045 376.694)">
      <path id="Path_11561" data-name="Path 11561" d="M-20.884-60.695c-3.568,0-4.437-1.094-4.437-2.72V-67.96c0-1.627.87-2.733,4.437-2.733s4.422,1.106,4.422,2.733v4.545C-16.462-61.788-17.317-60.695-20.884-60.695Zm0-2.573c1.041,0,1.2-.266,1.2-.627v-3.586c0-.346-.157-.612-1.2-.612s-1.2.267-1.2.612v3.586C-22.083-63.534-21.911-63.268-20.884-63.268Z" fill="#d6ad00"/>
      <path id="Path_11562" data-name="Path 11562" d="M-15.832-60.943c-.356,0-.513-.146-.513-.479v-8.614c0-.331.157-.478.513-.478h4.366c2.6,0,3.368,1.05,3.368,2.592v1.7c0,1.542-.771,2.591-3.368,2.591h-1.641v2.207c0,.332-.157.479-.514.479Zm2.7-5.077h1.285c.556,0,.67-.306.67-.652v-.7c0-.346-.114-.652-.67-.652h-1.285Z" transform="translate(0.742 0.034)" fill="#d6ad00"/>
      <path id="Path_11563" data-name="Path 11563" d="M-7.648-60.943c-.357,0-.514-.146-.514-.479v-8.614c0-.331.157-.478.514-.478h2.3a.68.68,0,0,1,.657.4l1.284,2.167c.1.158.143.225.257.225h.128c.114,0,.157-.066.257-.225L-1.5-70.114a.68.68,0,0,1,.657-.4H1.47c.357,0,.514.146.514.478v8.614c0,.332-.157.479-.514.479h-2.2c-.371,0-.514-.146-.514-.479V-66.1l-.842,1.449a.754.754,0,0,1-.755.426H-3.41a.758.758,0,0,1-.757-.426L-5.008-66.1v4.678c0,.332-.157.479-.514.479Z" transform="translate(1.248 0.034)" fill="#d6ad00"/>
    </g>
  </g>
</svg>
