<svg xmlns="http://www.w3.org/2000/svg" width="48" height="48" viewBox="0 0 48 48">
  <g id="ico-trip-b" transform="translate(-710 -287)">
    <circle id="Ellipse_339" data-name="Ellipse 339" cx="24" cy="24" r="24" transform="translate(710 287)" fill="#ffe8e8"/>
    <path id="route" d="M128-816a5.135,5.135,0,0,1-3.767-1.567,5.136,5.136,0,0,1-1.567-3.767v-10.9a4.12,4.12,0,0,1-1.917-1.45A3.8,3.8,0,0,1,120-836a3.857,3.857,0,0,1,1.167-2.833A3.857,3.857,0,0,1,124-840a3.857,3.857,0,0,1,2.833,1.167A3.857,3.857,0,0,1,128-836a3.8,3.8,0,0,1-.75,2.317,4.119,4.119,0,0,1-1.917,1.45v10.9a2.568,2.568,0,0,0,.783,1.883,2.568,2.568,0,0,0,1.883.783,2.568,2.568,0,0,0,1.883-.783,2.568,2.568,0,0,0,.783-1.883v-13.333a5.136,5.136,0,0,1,1.567-3.767A5.136,5.136,0,0,1,136-840a5.136,5.136,0,0,1,3.767,1.567,5.136,5.136,0,0,1,1.567,3.767v10.9a4.119,4.119,0,0,1,1.917,1.45A3.8,3.8,0,0,1,144-820a3.858,3.858,0,0,1-1.167,2.833A3.857,3.857,0,0,1,140-816a3.857,3.857,0,0,1-2.833-1.167A3.858,3.858,0,0,1,136-820a3.874,3.874,0,0,1,.75-2.333,3.879,3.879,0,0,1,1.917-1.433v-10.9a2.568,2.568,0,0,0-.783-1.883,2.568,2.568,0,0,0-1.883-.783,2.568,2.568,0,0,0-1.883.783,2.568,2.568,0,0,0-.783,1.883v13.333a5.136,5.136,0,0,1-1.567,3.767A5.135,5.135,0,0,1,128-816Z" transform="translate(602 1139)" fill="#ff2626"/>
  </g>
</svg>
