<svg xmlns="http://www.w3.org/2000/svg" width="48" height="48" viewBox="0 0 48 48">
  <g id="ico-vehicle" transform="translate(-710 -287)">
    <circle id="Ellipse_339" data-name="Ellipse 339" cx="24" cy="24" r="24" transform="translate(710 287)" fill="#fbd9e1"/>
    <g id="ico-vehicles" transform="translate(722 297.55)">
      <path id="Path_11517" data-name="Path 11517" d="M22.012,3.448a1.409,1.409,0,0,0-.536-.724,1.455,1.455,0,0,0-.861-.275H9.634a1.456,1.456,0,0,0-.862.275,1.422,1.422,0,0,0-.537.724L7,6.992h2.1l.891-2.546H20.265l1.049,2.995h-5.4l.015.009a2.41,2.41,0,0,1,.906,1.221l2.147,6.138v1.617h2.134v1a.981.981,0,0,0,1,1h1a.982.982,0,0,0,1-1V9.438Z" transform="translate(-0.109)" fill="#ec3c6a"/>
      <path id="Path_11518" data-name="Path 11518" d="M15.336,8.275A1.453,1.453,0,0,0,14.476,8H3.494a1.453,1.453,0,0,0-.861.275A1.411,1.411,0,0,0,2.1,9L0,14.988v7.987a.979.979,0,0,0,1,1H2a.979.979,0,0,0,1-1v-1h11.98v1a.979.979,0,0,0,1,1h1a.979.979,0,0,0,1-1V14.988L15.873,9A1.411,1.411,0,0,0,15.336,8.275ZM5.554,18.545a1.447,1.447,0,0,1-1.061.436,1.5,1.5,0,1,1,0-2.995,1.5,1.5,0,0,1,1.061,2.559Zm8.985,0a1.508,1.508,0,1,1,.436-1.061A1.447,1.447,0,0,1,14.539,18.545ZM2.8,12.992,3.844,10H14.126l1.048,2.995Z" transform="translate(0 -0.096)" fill="#ec3c6a"/>
    </g>
  </g>
</svg>
