<svg xmlns="http://www.w3.org/2000/svg" width="48" height="48" viewBox="0 0 48 48">
  <g id="ico-drivers" transform="translate(-710 -287)">
    <circle id="Ellipse_339" data-name="Ellipse 339" cx="24" cy="24" r="24" transform="translate(710 287)" fill="#d9f4fb"/>
    <g id="driverr" transform="translate(721.068 292.02)">
      <path id="Path_11491" data-name="Path 11491" d="M18.779,55.673A8.465,8.465,0,0,0,12.2,62.087c-.214.915.117,1.183.527,1.309a22.125,22.125,0,0,0,3.231.66,7.614,7.614,0,0,1,6.862-4.334,7.534,7.534,0,0,1,2.7.5l3.937-3.509a10.746,10.746,0,0,0-2.6-1.043l-3.712,2.009a.511.511,0,0,1-.653,0Z" transform="translate(-9.197 -33.581)" fill="#5967ff"/>
      <path id="Path_11492" data-name="Path 11492" d="M62.743,62.636l-3.721,3.319a7.636,7.636,0,0,1,2.285,2.8,22.334,22.334,0,0,0,3.232-.66c.41-.125.741-.393.527-1.309A8.117,8.117,0,0,0,62.743,62.636Z" transform="translate(-41.463 -38.277)" fill="#5967ff"/>
      <path id="Path_11493" data-name="Path 11493" d="M32.482,74.09a5.868,5.868,0,0,0-3.189,2.572c1.619.168,3.187.259,4.313.288V74.868A.831.831,0,0,0,32.482,74.09Z" transform="translate(-20.982 -45.97)" fill="#5967ff"/>
      <path id="Path_11494" data-name="Path 11494" d="M48.5,74.09a5.88,5.88,0,0,1,3.189,2.572c-1.619.168-3.187.259-4.313.288V74.868A.83.83,0,0,1,48.5,74.09Z" transform="translate(-33.399 -45.97)" fill="#5967ff"/>
      <path id="Path_11495" data-name="Path 11495" d="M33.066,24.178a32.53,32.53,0,0,1,4.237.527c.206.446.422.887.612,1.341a5.8,5.8,0,0,1,.437,2.213,5.451,5.451,0,0,1-5.283,5.6h0a5.45,5.45,0,0,1-5.283-5.6,5.807,5.807,0,0,1,.435-2.213c.191-.454.408-.9.613-1.341A32.538,32.538,0,0,1,33.066,24.178Zm3.27,2.645a10.6,10.6,0,0,1-3.27.509v-.005l0,.006a10.642,10.642,0,0,1-3.268-.509,3.922,3.922,0,0,0-.277,1.436,3.658,3.658,0,0,0,3.545,3.759h0a3.659,3.659,0,0,0,3.545-3.759A3.993,3.993,0,0,0,36.336,26.823Z" transform="translate(-19.754 -11.874)" fill="#5967ff" fill-rule="evenodd"/>
      <path id="Path_11496" data-name="Path 11496" d="M30.022,6.98c-2.579,0-10.439,2.355-4.708,5.241,0,0,3.129-.471,4.707-.564h0s0,0,0-.006h0s0,0,0,.006c1.577.093,4.708.564,4.708.564C40.463,9.335,32.6,6.98,30.022,6.98Z" transform="translate(-16.71)" fill="#5967ff"/>
    </g>
  </g>
</svg>
