<svg xmlns="http://www.w3.org/2000/svg" width="48" height="48" viewBox="0 0 48 48">
  <g id="ico-ongoing-trips" transform="translate(-710 -287)">
    <circle id="Ellipse_339" data-name="Ellipse 339" cx="24" cy="24" r="24" transform="translate(710 287)" fill="#fff2e8"/>
    <g id="Group_1209" data-name="Group 1209" transform="translate(722 299)">
      <path id="Path_11557" data-name="Path 11557" d="M13.85,15.031A6.374,6.374,0,0,1,17.37,12.7l.579-.152A4.147,4.147,0,0,0,18,12a4.012,4.012,0,0,0-4-4H4a1.923,1.923,0,0,1-1.412-.588,1.989,1.989,0,0,1,0-2.824A1.923,1.923,0,0,1,4,4h8.175a3.092,3.092,0,0,0,1.088,1.438A2.849,2.849,0,0,0,15,6a2.894,2.894,0,0,0,2.125-.875A2.894,2.894,0,0,0,18,3,2.894,2.894,0,0,0,17.125.875,2.894,2.894,0,0,0,15,0a2.85,2.85,0,0,0-1.737.563A3.089,3.089,0,0,0,12.175,2H4A3.852,3.852,0,0,0,1.175,3.175,3.852,3.852,0,0,0,0,6,3.852,3.852,0,0,0,1.175,8.825,3.852,3.852,0,0,0,4,10H14a2,2,0,0,1,1.412,3.412A1.923,1.923,0,0,1,14,14H5.825A2.908,2.908,0,0,0,4.75,12.563,2.907,2.907,0,0,0,3,12a2.894,2.894,0,0,0-2.125.875,3.018,3.018,0,0,0,0,4.25A2.894,2.894,0,0,0,3,18a2.849,2.849,0,0,0,1.737-.562A3.092,3.092,0,0,0,5.825,16h7.409A6.7,6.7,0,0,1,13.85,15.031Z" fill="#ff6926"/>
      <path id="Path_11558" data-name="Path 11558" d="M14,24V22.75h1.719l-.25-.219a4.837,4.837,0,0,1-1.117-1.664A4.987,4.987,0,0,1,14,19.031a5,5,0,0,1,3.75-4.875v1.313a3.782,3.782,0,0,0-2.5,3.562,3.6,3.6,0,0,0,1.094,2.594l.156.156V20.25h1.25V24Zm6.25-.156V22.531a3.778,3.778,0,0,0,2.5-3.562,3.6,3.6,0,0,0-1.094-2.594l-.156-.156V17.75H20.25V14H24v1.25H22.281l.25.219a4.837,4.837,0,0,1,1.117,1.664A4.987,4.987,0,0,1,24,18.969a5,5,0,0,1-3.75,4.875Z" fill="#ff6926"/>
    </g>
  </g>
</svg>
