<svg xmlns="http://www.w3.org/2000/svg" width="48" height="48" viewBox="0 0 48 48">
  <g id="ico-oil" transform="translate(-710 -287)">
    <circle id="Ellipse_339" data-name="Ellipse 339" cx="24" cy="24" r="24" transform="translate(710 287)" fill="#fff2e8"/>
    <path id="Path_11559" data-name="Path 11559" d="M23.985,36.156l-1.9.289-5.214,5.49H6.987v-3.3l-4.868-1.73,1.416-3.077L7.917,35.34v.893h0l2.59.006V35.155H8.954v-.929h4.1v.929H11.5V36.24l2.895.006.839,1.179,6.5-1.677,2.334-.408,1.134,1.065-.453.589Zm.978,1.668a9.541,9.541,0,0,0-1.155,2.664c0,.723.422.964,1.155.964s1.156-.241,1.156-.964A9.539,9.539,0,0,0,24.963,37.825Z" transform="translate(719.881 273.169)" fill="#ff6926"/>
  </g>
</svg>
