<svg xmlns="http://www.w3.org/2000/svg" width="48" height="48" viewBox="0 0 48 48">
  <g id="ico-today-trips" transform="translate(-710 -287)">
    <circle id="Ellipse_339" data-name="Ellipse 339" cx="24" cy="24" r="24" transform="translate(710 287)" fill="#dedfff"/>
    <g id="Group_1208" data-name="Group 1208" transform="translate(690 296)">
      <path id="Path_11555" data-name="Path 11555" d="M44.431,19.346V7.572a2.286,2.286,0,0,1,4.572,0v6.973a6.655,6.655,0,0,1,2.172-.343h.114V7.572a4.326,4.326,0,0,0-1.372-3.2,4.42,4.42,0,0,0-6.4,0,4.326,4.326,0,0,0-1.372,3.2V19a2.286,2.286,0,0,1-4.572,0V9.63a2.956,2.956,0,0,0,1.6-1.257,2.884,2.884,0,0,0,.686-1.943,3.29,3.29,0,0,0-1.029-2.4,3.315,3.315,0,0,0-4.8,0A3.29,3.29,0,0,0,33,6.429a2.884,2.884,0,0,0,.686,1.943,2.956,2.956,0,0,0,1.6,1.257V19a4.326,4.326,0,0,0,1.372,3.2,4.42,4.42,0,0,0,6.4,0A4.475,4.475,0,0,0,44.2,20.375,3.338,3.338,0,0,1,44.431,19.346Z" transform="translate(0 0)" fill="#5967ff"/>
      <path id="Path_11556" data-name="Path 11556" d="M51.573,22.373l.8-.8L50.2,19.4V16.658H49.058v3.2ZM49.63,25.46A5.118,5.118,0,0,1,47.344,25a5.223,5.223,0,0,1-1.829-1.257,6.533,6.533,0,0,1-1.257-1.829A5.118,5.118,0,0,1,43.8,19.63a5.118,5.118,0,0,1,.457-2.286,5.223,5.223,0,0,1,1.257-1.829,6.533,6.533,0,0,1,1.829-1.257,5.944,5.944,0,0,1,4.572,0,5.223,5.223,0,0,1,1.829,1.257A6.533,6.533,0,0,1,55,17.344a5.118,5.118,0,0,1,.457,2.286A5.118,5.118,0,0,1,55,21.916a5.223,5.223,0,0,1-1.257,1.829A10.359,10.359,0,0,1,51.916,25,5.118,5.118,0,0,1,49.63,25.46Z" transform="translate(1.545 1.545)" fill="#5967ff"/>
    </g>
  </g>
</svg>
