<svg xmlns="http://www.w3.org/2000/svg" width="48" height="48" viewBox="0 0 48 48">
  <g id="ico-milage" transform="translate(-710 -287)">
    <circle id="Ellipse_339" data-name="Ellipse 339" cx="24" cy="24" r="24" transform="translate(710 287)" fill="#e8fff9"/>
    <path id="pin-number" d="M82.4-780.8a2.311,2.311,0,0,1-1.695-.7A2.311,2.311,0,0,1,80-783.2v-14.4a2.311,2.311,0,0,1,.705-1.695A2.311,2.311,0,0,1,82.4-800h19.2a2.311,2.311,0,0,1,1.695.705A2.311,2.311,0,0,1,104-797.6v14.4a2.311,2.311,0,0,1-.705,1.7,2.311,2.311,0,0,1-1.695.7Zm3-6h1.38V-794H85.7l-2.1,1.5.72,1.08,1.08-.78Zm3.72,0H93.8V-788H90.98l-.06-.06q.63-.6,1.035-1.02t.645-.66a4.231,4.231,0,0,0,.81-1.08,2.516,2.516,0,0,0,.27-1.14,1.865,1.865,0,0,0-.66-1.455A2.439,2.439,0,0,0,91.34-794a2.369,2.369,0,0,0-1.41.45,2.3,2.3,0,0,0-.87,1.17l1.2.48a1.4,1.4,0,0,1,.435-.615,1.013,1.013,0,0,1,.645-.225,1.1,1.1,0,0,1,.735.24.753.753,0,0,1,.285.6,1.569,1.569,0,0,1-.12.615,2.479,2.479,0,0,1-.54.7l-.96.96L89.12-788Zm8.88,0a2.487,2.487,0,0,0,1.74-.6,2.01,2.01,0,0,0,.66-1.56,1.61,1.61,0,0,0-.3-.96,2,2,0,0,0-.84-.66v-.06a1.864,1.864,0,0,0,.66-.615,1.606,1.606,0,0,0,.24-.885,1.662,1.662,0,0,0-.63-1.335A2.4,2.4,0,0,0,97.94-794a2.447,2.447,0,0,0-1.395.435,1.92,1.92,0,0,0-.825,1.065l1.2.48a1.169,1.169,0,0,1,.39-.57,1,1,0,0,1,.63-.21.939.939,0,0,1,.645.225.711.711,0,0,1,.255.555.8.8,0,0,1-.3.66,1.211,1.211,0,0,1-.78.24h-.54v1.2h.6a1.56,1.56,0,0,1,.93.24.772.772,0,0,1,.33.66.866.866,0,0,1-.33.675,1.116,1.116,0,0,1-.75.285,1.189,1.189,0,0,1-.78-.225,1.87,1.87,0,0,1-.48-.8l-1.2.48a2.22,2.22,0,0,0,.855,1.335A2.673,2.673,0,0,0,98-786.8Z" transform="translate(642 1101.4)" fill="#3fb596"/>
  </g>
</svg>
