<svg xmlns="http://www.w3.org/2000/svg" width="48" height="48" viewBox="0 0 48 48">
  <g id="ico-milage-saudi" transform="translate(-710 -287)">
    <circle id="Ellipse_339" data-name="Ellipse 339" cx="24" cy="24" r="24" transform="translate(710 287)" fill="#fff5e8"/>
    <g id="Group_1215" data-name="Group 1215" transform="translate(721.742 294.966)">
      <path id="Path_11568" data-name="Path 11568" d="M29.223,21.329a2.873,2.873,0,0,0-2.087-2.461l-.764-.206a12.515,12.515,0,0,0-.614-3.016,15.194,15.194,0,0,1-.8-4.9,14.72,14.72,0,0,0-.307-3.236A.93.93,0,0,0,24.168,5.9l-.083-.01c-2.129-2.652-6.743-2.281-8.857,0a.933.933,0,0,0-.908.929.912.912,0,0,0,.311.688,14.674,14.674,0,0,0-.311,3.246c.1,2.944-.936,4.665-1.308,7.048H13.7a5.544,5.544,0,0,1,.141-.635,22.62,22.62,0,0,0,1.99-3.26,8.62,8.62,0,0,0,1.026,1.382V16.9c-.049-.035-.1-.07-.143-.1a.348.348,0,0,0-.527.119l-.44.876.012.007h4.2a1.853,1.853,0,0,1,1.336.555,1.89,1.89,0,0,1,.306.413,13.077,13.077,0,0,0,1.926-.985l-.433-.866a.339.339,0,0,0-.234-.185c-.178-.049-.3.076-.436.171V15.283A8.619,8.619,0,0,0,23.449,13.9a22.62,22.62,0,0,0,1.99,3.26,6.611,6.611,0,0,1,.22,1.306L24.3,18.1a11.688,11.688,0,0,1-2.477,1.328,1.916,1.916,0,0,1,.025.263V23.57h7.217a.35.35,0,0,0,.346-.384ZM22.978,5.767a36.809,36.809,0,0,0-6.5-.014A5.65,5.65,0,0,1,22.978,5.767Zm-1.254,11.5a5.268,5.268,0,0,1-1.03.3,5.4,5.4,0,0,1-3.138-.3V15.943a3.386,3.386,0,0,0,2.067.824,3.37,3.37,0,0,0,2.1-.824Zm.126-2.388c-1.373,1.54-2.978,1.585-4.374.045a8.956,8.956,0,0,1-1.33-1.875,1.678,1.678,0,0,0,.052-.391v-2.9a.893.893,0,0,1,.506-.813,2.624,2.624,0,0,1,1.683-.073,5.728,5.728,0,0,0,2.506,0c.977-.2,2.1-.18,2.189.887.018.247-.049,3.142.052,3.288A8.809,8.809,0,0,1,21.85,14.875Zm1.993-1.868c-.106-.061-.052-3.068-.063-3.25-.062-1.55-1.64-1.909-3.04-1.567a5.08,5.08,0,0,1-2.2,0,3.289,3.289,0,0,0-2.129.119A1.6,1.6,0,0,0,15.5,9.757v2.9a6.739,6.739,0,0,1-1.065,2.353,14.482,14.482,0,0,0,.583-4.273,15.031,15.031,0,0,1,.328-3.006,39.4,39.4,0,0,1,8.636,0,14.216,14.216,0,0,1,.279,3,14.482,14.482,0,0,0,.583,4.273A9.99,9.99,0,0,1,23.844,13.007Z" transform="translate(-7.063 0)" fill="#f89008"/>
      <path id="Path_11569" data-name="Path 11569" d="M3.355,55a1.2,1.2,0,0,1-1.192-1.192V46.653A1.2,1.2,0,0,1,3.355,45.46H12.9a1.2,1.2,0,0,1,1.192,1.193v7.155A1.2,1.2,0,0,1,12.9,55Zm1.491-2.981h.686V48.441H5l-1.043.745.358.537.537-.387Zm1.849,0H9.02v-.6h-1.4l-.03-.03q.313-.3.514-.507t.321-.328a2.112,2.112,0,0,0,.4-.537,1.251,1.251,0,0,0,.134-.567.926.926,0,0,0-.328-.723,1.211,1.211,0,0,0-.835-.291,1.177,1.177,0,0,0-.7.224,1.144,1.144,0,0,0-.433.581l.6.239a.7.7,0,0,1,.216-.306.5.5,0,0,1,.32-.112.548.548,0,0,1,.365.119.374.374,0,0,1,.142.3.778.778,0,0,1-.06.305,1.235,1.235,0,0,1-.268.35l-.477.477-.8.8Zm4.412,0a1.235,1.235,0,0,0,.865-.3,1,1,0,0,0,.328-.775.8.8,0,0,0-.149-.477.993.993,0,0,0-.417-.328v-.03a.925.925,0,0,0,.328-.305.8.8,0,0,0,.119-.44.825.825,0,0,0-.313-.663,1.191,1.191,0,0,0-.79-.261,1.218,1.218,0,0,0-.693.216.955.955,0,0,0-.41.529l.6.239a.583.583,0,0,1,.194-.283.5.5,0,0,1,.313-.1.466.466,0,0,1,.32.112.353.353,0,0,1,.127.276.4.4,0,0,1-.149.328.6.6,0,0,1-.387.119h-.268v.6h.3a.775.775,0,0,1,.462.119.383.383,0,0,1,.164.328.43.43,0,0,1-.164.335.554.554,0,0,1-.373.142.59.59,0,0,1-.387-.112.926.926,0,0,1-.238-.395l-.6.238a1.1,1.1,0,0,0,.425.663A1.326,1.326,0,0,0,11.107,52.019Z" transform="translate(0 -26.966)" fill="#f89008"/>
    </g>
  </g>
</svg>
